<svg width="800" height="400" viewBox="0 0 800 400" xmlns="http://www.w3.org/2000/svg">
  <defs>
    <linearGradient id="bg" x1="0%" y1="0%" x2="100%" y2="100%">
      <stop offset="0%" style="stop-color:#050d1a"/>
      <stop offset="100%" style="stop-color:#080f1a"/>
    </linearGradient>
    <linearGradient id="landGrad" x1="0%" y1="0%" x2="0%" y2="100%">
      <stop offset="0%" style="stop-color:#0d2a18"/>
      <stop offset="100%" style="stop-color:#071a0f"/>
    </linearGradient>
    <linearGradient id="polyGrad" x1="0%" y1="0%" x2="100%" y2="100%">
      <stop offset="0%" style="stop-color:#8247e5"/>
      <stop offset="100%" style="stop-color:#6935c5"/>
    </linearGradient>
  </defs>

  <!-- Background -->
  <rect width="800" height="400" fill="url(#bg)"/>

  <!-- Grid overlay -->
  <g stroke="#8247e5" stroke-opacity="0.05" stroke-width="1">
    <line x1="0" y1="80" x2="800" y2="80"/>
    <line x1="0" y1="160" x2="800" y2="160"/>
    <line x1="0" y1="240" x2="800" y2="240"/>
    <line x1="0" y1="320" x2="800" y2="320"/>
    <line x1="160" y1="0" x2="160" y2="400"/>
    <line x1="320" y1="0" x2="320" y2="400"/>
    <line x1="480" y1="0" x2="480" y2="400"/>
    <line x1="640" y1="0" x2="640" y2="400"/>
  </g>

  <!-- Map grid (land parcels) -->
  <g transform="translate(40, 80)">
    <!-- Parcel grid -->
    <rect x="0" y="0" width="260" height="220" rx="6" fill="#080f18" stroke="#8247e5" stroke-width="1" stroke-opacity="0.4"/>

    <!-- Land parcels -->
    <!-- Row 1 -->
    <rect x="12" y="12" width="70" height="55" rx="3" fill="#0d2a18" stroke="#00c85a" stroke-width="1.2"/>
    <text x="47" y="36" font-family="monospace" font-size="8" fill="#00c85a" text-anchor="middle">PARCEL</text>
    <text x="47" y="48" font-family="monospace" font-size="8" fill="#00c85a" text-anchor="middle">#A-001</text>
    <text x="47" y="60" font-family="monospace" font-size="7" fill="#2a6a40" text-anchor="middle">REGISTERED</text>

    <rect x="90" y="12" width="80" height="55" rx="3" fill="#1a1a0d" stroke="#e5c247" stroke-width="1.2"/>
    <text x="130" y="36" font-family="monospace" font-size="8" fill="#e5c247" text-anchor="middle">PARCEL</text>
    <text x="130" y="48" font-family="monospace" font-size="8" fill="#e5c247" text-anchor="middle">#A-002</text>
    <text x="130" y="60" font-family="monospace" font-size="7" fill="#8a7020" text-anchor="middle">DISPUTED</text>

    <rect x="178" y="12" width="70" height="55" rx="3" fill="#0d2a18" stroke="#00c85a" stroke-width="1.2"/>
    <text x="213" y="36" font-family="monospace" font-size="8" fill="#00c85a" text-anchor="middle">PARCEL</text>
    <text x="213" y="48" font-family="monospace" font-size="8" fill="#00c85a" text-anchor="middle">#A-003</text>
    <text x="213" y="60" font-family="monospace" font-size="7" fill="#2a6a40" text-anchor="middle">REGISTERED</text>

    <!-- Row 2 -->
    <rect x="12" y="75" width="50" height="70" rx="3" fill="#0d2a18" stroke="#00c85a" stroke-width="1.2"/>
    <text x="37" y="102" font-family="monospace" font-size="8" fill="#00c85a" text-anchor="middle">PARCEL</text>
    <text x="37" y="114" font-family="monospace" font-size="8" fill="#00c85a" text-anchor="middle">#B-001</text>

    <rect x="70" y="75" width="100" height="70" rx="3" fill="#1a0d0d" stroke="#e54747" stroke-width="1.5"/>
    <text x="120" y="102" font-family="monospace" font-size="8" fill="#e54747" text-anchor="middle">PARCEL</text>
    <text x="120" y="114" font-family="monospace" font-size="8" fill="#e54747" text-anchor="middle">#B-002</text>
    <text x="120" y="126" font-family="monospace" font-size="7" fill="#8a2020" text-anchor="middle">● ACTIVE TX</text>
    <text x="120" y="137" font-family="monospace" font-size="7" fill="#8a2020" text-anchor="middle">TRANSFERRING</text>

    <rect x="178" y="75" width="70" height="70" rx="3" fill="#0d2a18" stroke="#00c85a" stroke-width="1.2"/>
    <text x="213" y="102" font-family="monospace" font-size="8" fill="#00c85a" text-anchor="middle">PARCEL</text>
    <text x="213" y="114" font-family="monospace" font-size="8" fill="#00c85a" text-anchor="middle">#B-003</text>

    <!-- Row 3 -->
    <rect x="12" y="153" width="236" height="54" rx="3" fill="#0d2a18" stroke="#00c85a" stroke-width="1.2"/>
    <text x="130" y="174" font-family="monospace" font-size="8" fill="#00c85a" text-anchor="middle">PARCEL #C-001 (COMMERCIAL PLOT)</text>
    <text x="130" y="187" font-family="monospace" font-size="7" fill="#2a6a40" text-anchor="middle">Owner: 0x7a3F...9e2B • Area: 2400 sq.m</text>
    <text x="130" y="199" font-family="monospace" font-size="7" fill="#2a6a40" text-anchor="middle">Block: #20841 • Status: REGISTERED ✓</text>

    <!-- Map label -->
    <text x="130" y="215" font-family="monospace" font-size="9" fill="#8247e5" fill-opacity="0.7" text-anchor="middle">POLYGON BLOCKCHAIN LAND REGISTRY</text>
  </g>

  <!-- Right panel - ownership details -->
  <g transform="translate(330, 80)">
    <!-- Panel background -->
    <rect x="0" y="0" width="260" height="220" rx="6" fill="#0a0f1a" stroke="#8247e5" stroke-width="1" stroke-opacity="0.5"/>

    <!-- Header -->
    <rect x="0" y="0" width="260" height="32" rx="6" fill="#8247e5" fill-opacity="0.2"/>
    <rect x="0" y="22" width="260" height="10" fill="#8247e5" fill-opacity="0.2"/>
    <text x="130" y="21" font-family="monospace" font-size="10" fill="#b280ff" text-anchor="middle">OWNERSHIP RECORD</text>

    <!-- Record details -->
    <text x="16" y="55" font-family="monospace" font-size="9" fill="#6a6a8a">Owner Address</text>
    <text x="16" y="68" font-family="monospace" font-size="9" fill="#8247e5">0x7a3F2b9C...9e2B</text>

    <text x="16" y="88" font-family="monospace" font-size="9" fill="#6a6a8a">Token ID</text>
    <text x="16" y="101" font-family="monospace" font-size="9" fill="#b280ff">#LR-20841-C001</text>

    <text x="16" y="121" font-family="monospace" font-size="9" fill="#6a6a8a">Survey Number</text>
    <text x="16" y="134" font-family="monospace" font-size="9" fill="#c8c8e0">GJ-SUV-24-B002</text>

    <text x="16" y="154" font-family="monospace" font-size="9" fill="#6a6a8a">Area</text>
    <text x="16" y="167" font-family="monospace" font-size="9" fill="#c8c8e0">2400 sq. meters</text>

    <text x="140" y="55" font-family="monospace" font-size="9" fill="#6a6a8a">Status</text>
    <rect x="140" y="61" width="80" height="18" rx="4" fill="#00c85a" fill-opacity="0.15" stroke="#00c85a" stroke-width="0.8"/>
    <text x="180" y="74" font-family="monospace" font-size="8" fill="#00c85a" text-anchor="middle">VERIFIED ✓</text>

    <text x="140" y="100" font-family="monospace" font-size="9" fill="#6a6a8a">Chain</text>
    <rect x="140" y="106" width="80" height="18" rx="4" fill="#8247e5" fill-opacity="0.15" stroke="#8247e5" stroke-width="0.8"/>
    <text x="180" y="119" font-family="monospace" font-size="8" fill="#b280ff" text-anchor="middle">POLYGON</text>

    <text x="140" y="139" font-family="monospace" font-size="9" fill="#6a6a8a">Registered</text>
    <text x="140" y="152" font-family="monospace" font-size="9" fill="#c8c8e0">2024-03-15</text>

    <text x="140" y="172" font-family="monospace" font-size="9" fill="#6a6a8a">Prev Transfers</text>
    <text x="140" y="185" font-family="monospace" font-size="9" fill="#c8c8e0">3 records</text>

    <!-- Action buttons -->
    <rect x="12" y="190" width="110" height="22" rx="4" fill="#8247e5" fill-opacity="0.3" stroke="#8247e5" stroke-width="1"/>
    <text x="67" y="205" font-family="monospace" font-size="8" fill="#b280ff" text-anchor="middle">TRANSFER DEED</text>

    <rect x="134" y="190" width="112" height="22" rx="4" fill="#0d2a18" stroke="#00c85a" stroke-width="1"/>
    <text x="190" y="205" font-family="monospace" font-size="8" fill="#00c85a" text-anchor="middle">VIEW ON-CHAIN</text>
  </g>

  <!-- Polygon logo area -->
  <g transform="translate(620, 80)">
    <rect x="0" y="0" width="140" height="220" rx="6" fill="#0a0a18" stroke="#8247e5" stroke-width="1" stroke-opacity="0.4"/>
    <!-- Polygon diamond icon -->
    <g transform="translate(50, 30)">
      <polygon points="20,0 40,12 40,36 20,48 0,36 0,12" fill="#8247e5" fill-opacity="0.25" stroke="#8247e5" stroke-width="1.5"/>
      <polygon points="20,8 34,16 34,32 20,40 6,32 6,16" fill="#8247e5" fill-opacity="0.15"/>
      <text x="20" y="28" font-family="monospace" font-size="10" fill="#b280ff" text-anchor="middle">⬡</text>
    </g>
    <text x="70" y="100" font-family="monospace" font-size="11" fill="#8247e5" text-anchor="middle">POLYGON</text>
    <text x="70" y="114" font-family="monospace" font-size="8" fill="#6a4a8a" text-anchor="middle">BLOCKCHAIN</text>

    <!-- Stats -->
    <line x1="14" y1="128" x2="126" y2="128" stroke="#8247e5" stroke-width="0.5" stroke-opacity="0.4"/>
    <text x="70" y="148" font-family="monospace" font-size="8" fill="#6a6a8a" text-anchor="middle">Total Parcels</text>
    <text x="70" y="162" font-family="monospace" font-size="14" fill="#b280ff" text-anchor="middle">4,821</text>

    <text x="70" y="180" font-family="monospace" font-size="8" fill="#6a6a8a" text-anchor="middle">Fraud Cases</text>
    <text x="70" y="194" font-family="monospace" font-size="14" fill="#00c85a" text-anchor="middle">0</text>

    <text x="70" y="212" font-family="monospace" font-size="8" fill="#6a6a8a" text-anchor="middle">Gas: 0.0003 MATIC</text>
  </g>

  <!-- Bottom bar -->
  <rect x="0" y="360" width="800" height="40" fill="#040a12" fill-opacity="0.9"/>
  <text x="30" y="386" font-family="monospace" font-size="11" fill="#8247e5">LAND REGISTRY WEB</text>
  <text x="210" y="386" font-family="monospace" font-size="10" fill="#4a4a6a">● Polygon • Solidity • Web3.js • React</text>
  <circle cx="730" cy="380" r="5" fill="#8247e5" fill-opacity="0.9"/>
  <text x="742" y="385" font-family="monospace" font-size="10" fill="#b280ff">ON-CHAIN</text>

  <!-- Title -->
  <text x="400" y="46" font-family="'Courier New', monospace" font-size="14" font-weight="bold" fill="#ffffff" fill-opacity="0.9" text-anchor="middle">Decentralized Land Ownership Registry on Polygon</text>

  <!-- Particles -->
  <circle cx="70" cy="330" r="2" fill="#8247e5" fill-opacity="0.4"/>
  <circle cx="300" cy="345" r="1.5" fill="#8247e5" fill-opacity="0.3"/>
  <circle cx="500" cy="335" r="2" fill="#8247e5" fill-opacity="0.3"/>
</svg>
